<?xml version="1.0" encoding="utf-8"?>
<!-- Generator: Adobe Illustrator 27.0.1, SVG Export Plug-In . SVG Version: 6.00 Build 0)  -->
<svg version="1.1" id="Layer_1" xmlns="http://www.w3.org/2000/svg" xmlns:xlink="http://www.w3.org/1999/xlink" x="0px" y="0px"
	 viewBox="0 0 500 500" style="enable-background:new 0 0 500 500;" xml:space="preserve">
<style type="text/css">
	.st0{fill:#07264E;}
</style>
<path class="st0" d="M112.72,265.59c-0.41-0.86-0.69-1.36-0.88-1.88c-4.07-11.46-9.73-21.96-18.54-30.54
	c-5.55-5.4-12.05-9.2-19.48-11.38c-1.05-0.31-1.44-0.9-1.44-1.87c-0.01-5.25-0.03-10.51,0-15.76c0.01-1.16,0.5-1.41,1.5-0.83
	c12.93,7.54,24.01,17.05,31.71,30.09c3.06,5.18,5.26,10.73,6.31,16.7c0.16,0.9,0.53,1.76,0.8,2.64c0.15-0.01,0.29-0.02,0.44-0.04
	c0.3-1.46,0.61-2.91,0.89-4.37c1.49-7.7,4.22-14.97,7.81-21.91c5.27-10.2,12.23-19.16,20.44-27.14
	c6.73-6.54,14.18-12.17,22.13-17.15c0.97-0.61,1.41-0.3,1.42,1.06c0.02,4.98,0.01,9.95,0,14.93c0,1.52,0.12,3.06-0.06,4.56
	c-0.08,0.7-0.59,1.61-1.17,1.94c-10.58,5.96-19.9,13.49-28.02,22.47c-8.17,9.04-14.84,19.12-20.03,30.15
	C115.32,259.88,114.14,262.51,112.72,265.59z"/>
<path class="st0" d="M153.84,242.2c0,7.87,0,15.75,0,23.62c0,2.1-0.23,2.34-2.26,2.34c-4.84,0-9.67,0-14.51-0.01
	c-1.72,0-1.91-0.19-1.92-1.9c-0.01-10.27-0.02-20.54,0.03-30.81c0-0.72,0.25-1.6,0.69-2.15c4.8-5.98,10.25-11.32,16.23-16.12
	c0.12-0.1,0.27-0.17,0.42-0.23c0.26-0.1,0.54-0.16,0.8-0.26c0.08,0.24,0.18,0.49,0.28,0.73c0.11,0.29,0.21,0.59,0.21,0.88
	C153.85,226.26,153.84,234.23,153.84,242.2z"/>
<path class="st0" d="M72.32,246.54c0-6.45,0-12.91,0-19.36c0-2.16,0.11-2.22,2.16-1.55c5.7,1.85,10.78,4.75,15.11,8.88
	c0.65,0.62,1.16,1.73,1.17,2.61c0.08,9.68,0.06,19.36,0.05,29.04c0,1.78-0.22,1.99-1.99,1.99c-4.84,0.01-9.68,0.01-14.52,0
	c-1.82,0-1.99-0.17-1.99-1.98c-0.01-6.55,0-13.09,0-19.64C72.31,246.54,72.32,246.54,72.32,246.54z"/>
<g>
	<path class="st0" d="M211.86,258.24h-28.48l-4.67,10.27h-11.13l24.44-54.47h11.21l24.44,54.47h-11.21L211.86,258.24z
		 M197.62,225.48l-10.12,23.19h20.23L197.62,225.48z"/>
	<path class="st0" d="M272.71,252.48H257.3v16.03h-10.27v-54.47c8.56,0,17.12-0.08,25.68-0.08
		C299.33,213.96,299.4,252.48,272.71,252.48z M257.3,243.07h15.41c13.15,0,13.07-19.3,0-19.3H257.3V243.07z"/>
	<path class="st0" d="M325.47,214.04v44.98h28.02v9.49h-38.29v-54.47H325.47z"/>
	<path class="st0" d="M416.9,268.51h-40.78c0-18.13,0-36.34,0-54.47h40.78V224h-30.58v12.53h29.49v9.57h-29.49v12.3h30.58V268.51z"
		/>
</g>
<g>
	<path class="st0" d="M72.35,284.26h1.98l6.61,16.05l6.61-16.05h1.98l-7.6,18.14h-1.98L72.35,284.26z"/>
	<path class="st0" d="M114.77,278.35c0,1.91-2.9,1.91-2.9,0S114.77,276.44,114.77,278.35z M112.38,284.19v18.22h1.8v-18.22H112.38z"
		/>
	<path class="st0" d="M151.64,287.57c-1.84-1.62-3.64-1.91-5.66-1.91c-2.83-0.04-5.55,1.03-5.47,3.34c0.07,2.42,3.23,2.9,5.51,3.3
		c3.23,0.55,7.68,1.1,7.49,5.33c-0.11,4-4.26,5.07-7.46,5.07s-6.35-1.21-7.93-3.64l1.32-1.18c1.51,2.17,4.22,3.08,6.65,3.08
		c2.2,0,5.55-0.59,5.66-3.45c0.07-2.61-2.94-3.12-5.91-3.6c-3.53-0.59-7.02-1.25-7.05-4.88c-0.04-3.56,3.53-5.11,7.2-5.07
		c2.64,0,4.96,0.73,6.76,2.42L151.64,287.57z"/>
	<path class="st0" d="M194.83,284.26c0,6.06,0,12.08,0,18.14h-1.8v-3.86c-1.76,2.83-4.48,4.15-7.42,4.15
		c-5.07,0-9.22-3.82-9.22-9.37c0-5.55,4.15-9.29,9.22-9.29c2.94,0,5.91,1.36,7.42,4.19v-3.97H194.83z M178.2,293.34
		c0,4.55,3.31,7.6,7.42,7.6c10.1,0,10.1-15.17,0-15.17C181.5,285.77,178.2,288.78,178.2,293.34z"/>
	<path class="st0" d="M264.14,283.53l1.18,1.03l-1.76,2.06c1.29,1.4,2.24,3.23,2.24,6.17c0,3.16-1.87,6.35-4.88,7.71
		c3.2,1.14,4.96,3.38,4.96,6.5c0,4.88-3.82,7.24-8.63,7.24s-8.59-2.64-8.59-7.24h1.8c0,3.71,3.16,5.47,6.79,5.47
		s6.87-1.62,6.87-5.47c0-3.89-3.49-5.44-6.87-5.44c-5.25,0-8.52-3.93-8.52-8.78c0-5.66,3.82-8.85,8.52-8.85
		c1.84,0,3.75,0.66,5.14,1.65L264.14,283.53z M250.51,292.79c0,3.75,2.57,6.98,6.72,6.98c3.75,0,6.79-3.23,6.79-6.98
		c0-4.59-3.05-7.05-6.79-7.05C253.53,285.73,250.51,288.05,250.51,292.79z"/>
	<path class="st0" d="M303.99,302.41v-3.27c-1.4,2.5-3.93,3.53-6.46,3.56c-4.85,0-8.19-2.97-8.19-8.01v-10.47h1.8v10.43
		c0,4.11,2.53,6.32,6.46,6.28c3.75-0.04,6.35-2.87,6.35-6.61v-10.1h1.8v18.18H303.99z"/>
	<path class="st0" d="M332.75,278.35c0,1.91-2.9,1.91-2.9,0S332.75,276.44,332.75,278.35z M330.36,284.19v18.22h1.8v-18.22H330.36z"
		/>
	<path class="st0" d="M374.58,276.7v25.71h-1.76v-4c-1.51,2.75-4.48,4.3-7.57,4.3c-5.07,0-9.07-3.34-9.07-9.37
		c0-5.99,4.04-9.37,9.11-9.37c3.12,0,6.06,1.32,7.53,4.26V276.7H374.58z M357.94,293.34c0,5.03,3.34,7.6,7.42,7.6
		c4.26,0,7.42-3.12,7.42-7.64s-3.23-7.6-7.42-7.6C361.29,285.7,357.94,288.23,357.94,293.34z"/>
	<path class="st0" d="M399,293.34c0-5.44,4.11-9.37,9.22-9.37c5.11,0,9.66,3.12,8.96,10.21h-16.34c0.37,4.26,3.64,6.72,7.38,6.72
		c2.39,0,5.18-0.96,6.54-2.75l1.29,1.03c-1.76,2.31-4.92,3.49-7.82,3.49C403.12,302.67,399,299.1,399,293.34z M415.57,292.6
		c-0.04-4.48-2.97-6.98-7.35-6.98c-3.75,0-6.98,2.53-7.38,6.98H415.57z"/>
</g>
</svg>
