<svg width="385" height="202" viewBox="0 0 385 202" fill="none" xmlns="http://www.w3.org/2000/svg">
<g clip-path="url(#clip0_53_497)">
<path d="M4.64968 98.9999C4.64982 74.3348 4.54596 50.1689 4.71908 26.0051C4.76623 19.4228 4.23934 13.0784 1.74037 6.93962C1.07033 5.29366 0.180693 3.58114 0.95278 0.862322C6.47548 0.862322 12.225 0.629297 17.941 0.966318C20.5708 1.12138 20.6174 4.08666 21.2743 6.04158C29.122 29.3961 36.9063 52.7719 44.7175 76.1387C45.5034 78.4895 46.3569 80.8176 47.5396 84.1818C51.7565 71.7968 55.6945 60.376 59.5326 48.9218C64.3981 34.4012 69.3027 19.8913 73.92 5.29126C75.1201 1.49635 77.2059 0.543321 80.8699 0.634004C91.4892 0.896814 90.3257 -0.197798 90.3337 9.99854C90.3672 52.3291 90.2667 94.6601 90.4509 136.99C90.4727 141.997 89.1531 143.582 84.0292 143.466C70.698 143.166 70.6961 143.407 70.695 129.868C70.6929 105.037 70.6863 80.205 70.6816 55.3733C70.6813 53.6095 70.6816 51.8457 69.7757 49.9169C65.6145 62.306 61.4534 74.6951 57.292 87.0842C54.7475 94.6596 52.0717 102.195 49.7157 109.828C48.6091 113.414 47.1222 115.397 42.8503 115.389C38.5857 115.381 37.1131 113.383 35.9418 109.819C29.6534 90.6839 23.1936 71.6049 16.7892 52.5077C16.5268 51.7251 16.2267 50.9552 15.1656 50.1714C15.1656 52.8229 15.1661 55.4745 15.1655 58.126C15.1595 84.6241 15.0872 111.123 15.215 137.62C15.2353 141.844 14.074 143.636 9.54969 143.461C5.89729 143.32 4.567 142.169 4.60616 138.496C4.74476 125.499 4.65385 112.499 4.64968 98.9999Z" fill="#01244a"/>
<path d="M197.339 143.192C193.912 141.59 194.905 138.767 194.9 136.449C194.828 99.4694 194.785 62.4898 194.888 25.5107C194.907 18.7872 194.592 12.2352 191.927 5.94415C191.378 4.64843 190.63 3.18539 191.349 1.55638C193.061 0.202445 195.136 0.662314 197.06 0.721945C205.868 0.99478 214.704 -0.0166264 223.488 1.4339C241.42 4.39525 250.333 13.6094 252.166 31.9063C253.11 41.3343 253.119 50.8108 251.342 60.2224C248.3 76.3358 237.785 85.7322 221.315 86.2023C216.592 86.3371 215.002 87.6602 215.096 92.5055C215.386 107.492 215.068 122.489 215.29 137.477C215.357 142.034 213.918 143.837 209.287 143.413C205.486 143.066 201.632 143.293 197.339 143.192ZM218.814 73.4175C225.106 71.2191 228.33 66.3645 229.856 60.2508C232.729 48.7408 232.713 37.1686 229.419 25.7752C227.188 18.0547 222.436 14.3521 215.837 14.2143C215.696 14.5099 215.433 14.805 215.431 15.1012C215.347 33.5665 215.287 52.0318 215.218 70.4971C215.211 72.4337 215.786 73.7914 218.814 73.4175Z" fill="#01244a"/>
<path d="M152.488 138.392C151.613 133.377 150.684 128.813 150.078 124.207C149.675 121.145 148.273 119.895 145.18 119.971C139.854 120.103 134.522 120.026 129.193 119.954C126.297 119.915 124.524 120.747 124.214 124.076C123.846 128.034 122.882 131.933 122.303 135.876C121.143 143.766 119.403 144.845 110.875 142.251C112.278 133.707 113.674 125.072 115.116 116.444C120.288 85.505 125.358 54.5479 130.757 23.6484C131.846 17.4166 131.52 11.4419 130.421 5.36729C130.188 4.08171 129.617 2.79138 130.787 1.06253C135.865 0.296672 141.329 0.752665 146.768 0.814784C149.465 0.845584 149.811 3.11262 150.138 5.04087C153.221 23.2068 156.242 41.3834 159.273 59.5581C163.452 84.6163 167.631 109.674 171.791 134.736C172.22 137.319 172.514 139.925 172.969 143.243C166.804 143.243 161.198 143.328 155.596 143.206C152.825 143.146 152.842 140.801 152.488 138.392ZM142.273 77.0414C140.674 67.7378 139.075 58.4343 137.476 49.1308C135.487 57.1372 134.128 65.1136 132.766 73.0895C130.982 83.5381 129.131 93.9759 127.472 104.444C127.171 106.342 126.185 109.316 129.604 109.477C135.334 109.746 141.086 109.55 147.495 109.55C145.736 98.4167 144.114 88.1511 142.273 77.0414Z" fill="#01244a"/>
<path d="M368.068 71.6858C371.658 71.8985 374.841 71.1932 377.909 72.2018C377.429 79.7884 374.935 82.1639 367.54 82.187C360.359 82.2095 360.353 82.2095 360.35 89.1801C360.345 101.51 360.343 113.84 360.351 126.169C360.355 132.879 360.365 132.878 366.856 132.892C371.188 132.901 375.522 133.002 379.851 132.898C383.957 132.801 384.252 135.34 384.265 138.497C384.279 141.69 383.435 143.441 379.759 143.392C368.431 143.24 357.097 143.197 345.771 143.41C341.776 143.485 340.556 142.013 340.601 138.178C340.754 125.184 340.657 112.186 340.656 99.1902C340.654 68.6991 340.648 38.208 340.656 7.71687C340.657 0.707001 340.679 0.701539 347.888 0.69867C359.511 0.694032 371.134 0.697426 382.78 0.697426C382.387 8.35371 379.598 11.1999 372.992 11.2427C360.349 11.3246 360.349 11.3246 360.349 23.7878C360.349 37.2839 360.348 50.78 360.349 64.276C360.35 71.6551 360.352 71.6551 368.068 71.6858Z" fill="#01244a"/>
<path d="M274.7 86.9999C274.699 60.0122 274.825 33.5232 274.586 7.03759C274.539 1.90058 276.158 0.0698806 281.151 0.643436C283.782 0.945605 286.498 0.913379 289.137 0.649264C293.593 0.203288 294.978 2.24122 294.946 6.42626C294.837 20.9186 294.938 35.4124 294.94 49.9057C294.942 75.3939 294.923 100.882 294.929 126.37C294.931 132.695 295.101 132.845 301.315 132.887C305.646 132.917 309.977 132.967 314.308 132.929C318.685 132.89 318.17 135.97 318.315 138.831C318.469 141.877 317.609 143.436 314.164 143.393C302.505 143.249 290.841 143.221 279.182 143.382C275.048 143.44 274.682 141.166 274.692 137.977C274.743 121.151 274.707 104.326 274.7 86.9999Z" fill="#01244a"/>
<path d="M102 187.028C70.8637 186.786 40.2274 186.549 9.59109 186.305C8.42652 186.296 7.25906 186.269 6.09901 186.175C4.80558 186.071 3.9341 185.498 3.83635 184.035C3.72564 182.379 4.54475 181.474 6.07645 181.34C8.06106 181.166 10.0651 181.095 12.057 181.142C62.0065 182.317 111.968 181.307 161.919 181.98C164.627 182.016 166.505 181.214 168.327 179.056C171.942 174.774 177.892 174.546 181.562 178.122C184.915 181.39 184.944 187.369 181.621 190.769C178 194.475 172.04 194.394 168.425 190.049C166.406 187.623 164.208 187.262 161.452 187.257C141.802 187.219 122.151 187.114 102 187.028Z" fill="#01244a"/>
<path d="M291.291 200.996C287.737 201.36 284.59 201.714 281.552 200.422C277.257 198.595 276.866 196.303 278.111 191.81C279.117 188.183 280.724 184.357 278.658 180.217C276.185 175.261 279.548 170.328 285.467 169.741C289.968 169.295 294.258 170.846 298.691 171.122C297.442 180.822 294.618 183.925 285.543 186.253C287.68 186.586 289.821 186.895 291.954 187.256C295.161 187.8 298.478 188.486 298.822 192.496C299.148 196.292 296.799 198.627 293.553 200.153C292.953 200.435 292.318 200.642 291.291 200.996ZM289.625 196.432C290.771 195.879 292.256 195.644 292.085 193.8C290.523 191.676 288.215 192.413 286.158 192.306C284.982 192.246 283.718 192.41 283.494 193.909C283.282 195.334 284.308 196.07 285.47 196.342C286.572 196.6 287.758 196.507 289.625 196.432ZM290.53 177.454C290.265 175.208 288.861 174.323 286.761 174.461C285.222 174.562 284.414 175.538 284.285 177.056C284.159 178.532 284.722 179.724 286.112 180.242C288.207 181.021 289.597 180.054 290.53 177.454Z" fill="#01244a"/>
<path d="M358.299 160.768C359.837 170.718 358.843 180.341 359.059 189.943C359.115 192.44 357.529 194.101 355.307 193.054C352.678 191.814 350.642 192.587 348.296 193.33C344.954 194.387 342.075 193.448 339.833 190.733C335.831 185.887 336.149 176.777 340.457 172.302C342.53 170.15 343.671 169.886 351.331 169.649C355.531 167.523 347.76 158.093 358.299 160.768ZM349.98 174.868C344.775 175.091 342.311 179.568 344.208 185.128C344.807 186.885 345.795 188.2 347.589 188.349C349.526 188.511 351.646 187.578 352.017 185.772C352.752 182.199 354.202 178.283 349.98 174.868Z" fill="#01244a"/>
<path d="M365.609 172.492C374.2 167.139 382.877 170.232 383.465 178.406C383.676 181.342 382.65 182.895 379.69 182.941C376.223 182.994 372.754 182.953 369.237 182.953C370.149 188.042 372.264 189.419 376.674 188.043C377.149 187.895 377.612 187.696 378.06 187.478C380.018 186.524 381.831 186.731 382.587 188.873C383.338 191.004 381.314 191.755 379.888 192.393C375.355 194.422 370.735 194.609 366.685 191.434C362.691 188.302 361.46 183.876 362.267 178.926C362.648 176.589 363.627 174.48 365.609 172.492ZM377.105 176.95C373.407 173.161 371.329 173.463 369.837 178.237C372.351 178.558 374.813 179.546 377.105 176.95Z" fill="#01244a"/>
<path d="M315.836 179.862C315.901 177.074 315.878 174.745 316.059 172.432C316.222 170.351 317.637 169.7 319.56 169.836C321.365 169.964 322.263 170.949 322.267 172.722C322.281 178.699 322.276 184.677 322.264 190.654C322.261 192.522 321.063 193.835 319.477 193.132C316.387 191.763 313.806 193.154 310.963 193.692C306.305 194.573 302.415 191.356 301.903 186.001C301.494 181.723 301.778 177.377 301.763 173.061C301.756 170.812 302.817 169.727 305.138 169.809C307.532 169.894 308.261 171.284 308.262 173.394C308.264 176.549 308.29 179.703 308.29 182.858C308.291 185.437 308.299 188.349 311.722 188.383C315.103 188.416 316.029 185.854 315.842 182.819C315.791 181.992 315.836 181.159 315.836 179.862Z" fill="#01244a"/>
<path d="M256.077 176.122C253.856 174.029 251.868 175.09 249.845 175.852C248.192 176.474 246.44 176.724 245.599 174.72C244.69 172.555 246.629 171.791 247.978 171.005C255.736 166.483 263.281 170.847 263.344 179.845C263.359 182 263.436 184.16 263.334 186.31C263.159 189.977 264.685 195.404 257.452 192.204C256.794 191.913 255.635 192.824 254.688 193.104C249.249 194.709 245.128 193.154 243.962 189.079C242.78 184.951 245.3 181.875 251.197 180.305C252.313 180.008 253.464 179.827 254.607 179.642C256.648 179.311 256.958 178.115 256.077 176.122ZM251.294 188.374C252.764 188.945 254.239 188.9 255.463 187.917C256.781 186.859 257.497 185.155 255.384 184.613C253.096 184.026 250.171 183.857 251.294 188.374Z" fill="#01244a"/>
<path d="M237.08 179.799C240.31 181.341 242.527 183.384 242.046 186.838C241.6 190.037 239.486 192.229 236.378 193.14C232.745 194.204 229.153 194.08 225.917 191.803C225.029 191.178 224.706 190.233 225.219 189.182C225.94 187.705 227.225 187.591 228.61 187.925C230.926 188.484 233.304 189.74 235.391 187.261C234.555 184.34 231.857 184.335 229.896 183.408C226.8 181.943 224.509 179.964 224.847 176.256C225.129 173.155 226.976 170.942 229.939 170.149C233.545 169.184 237.332 169.05 240.308 171.733C242.092 173.342 240.877 174.696 238.948 175.307C238.504 175.447 237.959 175.343 237.474 175.264C235.49 174.939 232.63 173.006 231.893 175.904C231.092 179.057 234.999 178.465 237.08 179.799Z" fill="#01244a"/>
<path d="M190.135 173.849C189.588 171.895 188.764 170.088 191.508 169.798C193.718 169.565 195.408 170.248 196.232 172.52C197.582 176.239 198.994 179.936 200.778 184.711C202.307 180.659 203.496 177.649 204.579 174.601C205.805 171.152 207.342 168.4 212.465 170.927C209.674 177.831 207.117 184.804 204.021 191.53C202.57 194.682 198.32 193.959 196.784 190.388C194.486 185.047 192.44 179.598 190.135 173.849Z" fill="#01244a"/>
<path d="M330.111 193.243C327.754 193.109 327.069 191.814 327.054 190.196C326.999 184.384 327.004 178.571 327.073 172.758C327.099 170.558 328.311 169.405 330.588 169.56C332.723 169.705 333.334 171.073 333.33 172.964C333.318 178.612 333.33 184.259 333.317 189.907C333.313 191.752 332.787 193.208 330.111 193.243Z" fill="#01244a"/>
<path d="M221.252 176.227C221.244 181.004 221.215 185.313 221.235 189.622C221.246 192.004 220.385 193.371 217.737 193.284C215.26 193.202 214.709 191.72 214.706 189.67C214.697 184.532 214.668 179.395 214.68 174.257C214.685 172.096 214.453 169.674 217.643 169.566C220.956 169.453 221.28 171.75 221.244 174.268C221.237 174.765 221.247 175.262 221.252 176.227Z" fill="#01244a"/>
<path d="M214.316 162.401C215.809 159.902 217.609 159.136 219.857 160.538C221.369 161.481 222.126 162.926 221.416 164.756C220.748 166.48 219.392 167.422 217.581 167.216C215.03 166.926 213.929 165.303 214.316 162.401Z" fill="#01244a"/>
<path d="M332.295 160.558C334.229 162.387 334.874 164.138 333.184 166.009C331.949 167.376 330.313 167.686 328.667 166.837C326.983 165.968 326.356 164.366 326.901 162.634C327.682 160.152 329.479 159.355 332.295 160.558Z" fill="#01244a"/>
</g>
<defs>
<clipPath id="clip0_53_497">
<rect width="385" height="202" fill="white"/>
</clipPath>
</defs>
</svg>
