<?xml version="1.0" standalone="no"?>
<!DOCTYPE svg PUBLIC "-//W3C//DTD SVG 20010904//EN"
 "http://www.w3.org/TR/2001/REC-SVG-20010904/DTD/svg10.dtd">
<svg version="1.0" xmlns="http://www.w3.org/2000/svg"
 width="64.000000pt" height="64.000000pt" viewBox="0 0 64.000000 64.000000"
 preserveAspectRatio="xMidYMid meet">

<g transform="translate(0.000000,64.000000) scale(0.100000,-0.100000)"
fill="#000088" stroke="none">
<path d="M543 624 c-3 -9 6 -27 23 -45 l28 -29 -27 -28 c-31 -32 -34 -47 -11
-56 21 -8 84 55 84 84 0 23 -59 90 -79 90 -7 0 -14 -7 -18 -16z"/>
<path d="M361 568 c-23 -6 -72 -46 -145 -118 -105 -103 -110 -110 -94 -126 16
-17 23 -12 120 84 57 55 116 105 131 111 16 6 55 11 87 11 63 0 85 14 55 37
-21 15 -104 16 -154 1z"/>
<path d="M379 401 c-24 -16 -82 -67 -129 -115 -80 -82 -87 -86 -128 -86 -55 0
-96 -21 -112 -59 -16 -39 -5 -82 26 -112 23 -21 37 -24 125 -27 105 -4 129 3
129 39 0 13 7 19 24 19 17 0 26 7 30 24 3 14 16 26 31 30 18 5 25 13 25 30 0
18 7 25 30 30 23 4 30 11 30 30 0 22 5 24 60 28 45 3 66 10 84 27 49 46 41
127 -15 156 -16 9 -56 15 -97 15 -58 0 -75 -4 -113 -29z m195 -37 c21 -20 20
-43 -1 -66 -13 -14 -31 -18 -85 -18 -68 0 -69 0 -74 -30 -5 -23 -12 -30 -30
-30 -19 0 -26 -7 -30 -30 -5 -23 -12 -30 -29 -30 -16 0 -25 -7 -29 -24 -3 -14
-16 -26 -31 -30 -18 -5 -25 -13 -25 -31 0 -24 -2 -25 -77 -25 -81 0 -113 14
-113 51 0 32 28 49 84 49 50 0 54 2 106 56 30 31 85 83 123 115 67 59 68 59
132 59 44 0 68 -5 79 -16z"/>
</g>
</svg>
