<?xml version="1.0" standalone="no"?>
<!DOCTYPE svg PUBLIC "-//W3C//DTD SVG 20010904//EN"
 "http://www.w3.org/TR/2001/REC-SVG-20010904/DTD/svg10.dtd">
<svg version="1.0" xmlns="http://www.w3.org/2000/svg"
 width="256.000000pt" height="256.000000pt" viewBox="0 0 256.000000 256.000000"
 preserveAspectRatio="xMidYMid meet">

<g transform="translate(0.000000,256.000000) scale(0.100000,-0.100000)"
fill="#01244a" stroke="none">
<path d="M1146 2544 c-12 -11 -16 -35 -16 -89 l0 -73 38 10 c20 6 71 11 112
11 41 0 92 -5 113 -11 l37 -10 0 73 c0 103 -3 105 -150 105 -94 0 -122 -3
-134 -16z"/>
<path d="M1158 2281 c-124 -50 -206 -150 -227 -277 -28 -177 77 -348 245 -399
208 -63 419 71 454 288 24 152 -57 305 -198 374 -75 37 -201 43 -274 14z m213
-213 c93 -69 74 -220 -32 -262 -22 -9 -48 -16 -59 -16 -41 0 -99 32 -124 69
-30 43 -35 114 -12 160 15 28 55 60 91 73 34 12 104 -1 136 -24z"/>
<path d="M881 1610 c-17 -36 -100 -216 -184 -400 l-154 -335 -122 -3 c-120 -3
-123 -2 -154 24 -64 54 -160 8 -160 -77 0 -85 96 -129 161 -74 l30 25 416 0
416 0 0 -63 c0 -36 5 -68 12 -75 17 -17 259 -17 276 0 7 7 12 39 12 75 l0 63
416 0 416 0 30 -25 c41 -34 88 -33 129 3 26 23 32 36 32 71 0 54 -33 90 -89
98 -33 4 -45 1 -71 -21 -31 -26 -34 -27 -154 -24 l-122 3 -154 335 c-84 184
-167 364 -184 400 l-30 65 -32 -39 c-36 -45 -134 -112 -178 -121 -17 -4 -32
-12 -35 -19 -2 -6 59 -148 136 -315 77 -167 140 -306 140 -308 0 -1 -56 -3
-125 -3 l-125 0 0 63 c0 36 -5 68 -12 75 -17 17 -259 17 -276 0 -7 -7 -12 -39
-12 -75 l0 -63 -125 0 c-69 0 -125 2 -125 3 0 2 63 141 140 308 77 167 138
309 136 315 -3 7 -18 15 -35 19 -44 9 -142 76 -178 121 l-32 39 -30 -65z"/>
<path d="M413 588 c-18 -40 -49 -110 -69 -156 -34 -79 -35 -86 -24 -130 6 -26
18 -54 25 -62 12 -13 9 -27 -21 -93 -41 -93 -43 -119 -9 -137 37 -20 61 2 99
89 32 73 33 74 82 87 69 17 90 47 194 274 50 107 90 195 90 197 0 2 -76 3
-168 3 l-168 0 -31 -72z"/>
<path d="M1780 657 c0 -2 40 -90 90 -197 104 -227 125 -257 194 -274 49 -13
50 -14 82 -87 38 -87 62 -109 99 -89 34 18 32 44 -8 132 l-34 73 21 40 c33 63
26 104 -45 262 l-64 143 -167 0 c-93 0 -168 -1 -168 -3z"/>
</g>
</svg>
