<?xml version="1.0" standalone="no"?>
<!DOCTYPE svg PUBLIC "-//W3C//DTD SVG 20010904//EN"
 "http://www.w3.org/TR/2001/REC-SVG-20010904/DTD/svg10.dtd">
<svg version="1.0" xmlns="http://www.w3.org/2000/svg"
 width="256.000000pt" height="256.000000pt" viewBox="0 0 256.000000 256.000000"
 preserveAspectRatio="xMidYMid meet">

<g transform="translate(0.000000,256.000000) scale(0.100000,-0.100000)"
fill="#01244a" stroke="none">
<path d="M344 2431 c-127 -73 -211 -186 -235 -316 l-12 -60 77 -204 c42 -113
76 -210 76 -215 0 -6 -34 -100 -75 -210 l-75 -198 0 -544 c0 -532 0 -544 20
-564 20 -20 29 -20 1166 -18 1121 3 1146 3 1160 22 12 17 14 110 14 562 l0
542 -75 198 c-41 110 -75 204 -75 210 0 5 34 100 75 211 l74 200 -10 63 c-5
35 -22 88 -36 119 -32 67 -118 156 -193 199 l-55 32 -885 0 -885 0 -51 -29z
m1014 -196 c47 -20 79 -50 103 -97 l19 -38 -200 0 -200 0 19 38 c49 96 161
138 259 97z m972 -243 c0 -4 -13 -41 -28 -82 -16 -41 -41 -108 -56 -147 l-28
-73 -253 0 c-251 0 -253 0 -296 25 -51 29 -93 31 -147 10 -34 -14 -42 -14 -75
0 -20 8 -52 15 -71 15 -27 0 -40 6 -52 25 -9 14 -36 37 -59 50 -76 45 -164 28
-226 -43 -27 -30 -38 -36 -68 -34 -23 2 -54 -6 -86 -22 -50 -26 -52 -26 -297
-26 l-246 0 -28 73 c-15 39 -40 106 -56 147 -15 41 -28 78 -28 82 0 5 473 8
1050 8 578 0 1050 -3 1050 -8z m-1102 -268 c13 -9 34 -34 48 -56 25 -40 26
-40 73 -34 36 5 56 2 86 -14 48 -25 49 -25 102 1 29 14 52 19 73 14 31 -7 80
-56 80 -80 0 -26 38 -37 86 -27 105 23 190 -33 217 -143 10 -44 18 -53 57 -75
l45 -25 -814 -3 c-448 -1 -816 0 -819 3 -10 9 22 67 45 82 17 12 37 14 75 10
53 -7 88 9 88 38 0 6 13 24 29 39 26 25 37 28 87 27 67 -1 84 10 84 55 0 23 9
44 29 66 28 31 33 33 98 33 l68 0 17 37 c31 65 95 88 146 52z m-523 -148 c-33
-14 -95 -71 -95 -87 0 -5 -20 -9 -45 -9 -52 0 -109 -21 -144 -53 -28 -26 -60
-92 -61 -124 0 -22 -4 -23 -65 -23 -36 0 -65 2 -65 5 0 2 25 72 56 155 l56
150 197 0 c171 -1 192 -2 166 -14z m1569 -136 c31 -83 56 -153 56 -155 0 -3
-24 -5 -54 -5 -50 0 -56 3 -81 35 -14 20 -44 47 -65 61 -26 17 -43 39 -51 63
-15 46 -35 77 -73 119 l-30 32 121 0 121 0 56 -150z m-786 -384 c3 -148 -9
-210 -50 -260 -108 -131 -322 -81 -357 84 -12 56 -15 282 -4 294 4 3 97 5 207
4 l201 -3 3 -119z m-1192 -632 c70 -33 154 -145 154 -204 0 -20 -5 -21 -122
-18 l-123 3 -3 124 -3 124 31 -7 c18 -3 47 -13 66 -22z m2062 -96 l-3 -123
-124 -3 -124 -3 6 37 c15 93 141 209 230 213 16 1 17 -9 15 -121z"/>
<path d="M1230 962 c0 -44 5 -63 18 -75 45 -41 82 -6 82 76 l0 57 -50 0 -50 0
0 -58z"/>
</g>
</svg>
